<svg width="20" height="22" viewBox="0 0 20 22" fill="none" xmlns="http://www.w3.org/2000/svg">
<path fill-rule="evenodd" clip-rule="evenodd" d="M9.91124 2.46552C9.5031 1.04361 8.20457 0 6.66642 0C5.12826 0 3.82973 1.04361 3.4216 2.46552H0.948277C0.424559 2.46552 0 2.89007 0 3.41379C0 3.93751 0.424558 4.36207 0.948276 4.36207H3.42185C3.82998 5.78398 5.12851 6.82759 6.66667 6.82759C8.20482 6.82759 9.50335 5.78398 9.91149 4.36207H19.0517C19.5754 4.36207 20 3.93751 20 3.41379C20 2.89007 19.5754 2.46552 19.0517 2.46552H9.91124ZM10.0885 10.0517C10.4967 8.62982 11.7952 7.58621 13.3333 7.58621C14.8712 7.58621 16.17 8.62982 16.5779 10.0517H19.0517C19.5754 10.0517 20 10.4763 20 11C20 11.5237 19.5754 11.9483 19.0517 11.9483H16.5782C16.17 13.3702 14.8715 14.4138 13.3333 14.4138C11.7952 14.4138 10.4967 13.3702 10.0885 11.9483H0.948276C0.424558 11.9483 0 11.5237 0 11C0 10.4763 0.42456 10.0517 0.948278 10.0517H10.0885ZM11.831 11C11.831 11.8368 12.5048 12.5172 13.3333 12.5172C14.1616 12.5172 14.8357 11.8368 14.8357 11C14.8357 10.1632 14.1619 9.48276 13.3333 9.48276C12.5048 9.48276 11.831 10.1632 11.831 11ZM6.66667 15.1724C5.12851 15.1724 3.82998 16.216 3.42185 17.6379H0.948277C0.424558 17.6379 0 18.0625 0 18.5862C0 19.1099 0.424558 19.5345 0.948276 19.5345H3.42185C3.82998 20.9564 5.12851 22 6.66667 22C8.20482 22 9.50335 20.9564 9.91149 19.5345H19.0517C19.5754 19.5345 20 19.1099 20 18.5862C20 18.0625 19.5754 17.6379 19.0517 17.6379H9.91124C9.50335 16.216 8.20457 15.1724 6.66667 15.1724ZM5.16432 18.5862C5.16432 19.423 5.83812 20.1034 6.66667 20.1034C7.49496 20.1034 8.16901 19.423 8.16901 18.5862C8.16901 17.7494 7.49521 17.069 6.66667 17.069C5.83812 17.069 5.16432 17.7494 5.16432 18.5862ZM5.16432 3.41379C5.16432 4.25055 5.83812 4.93103 6.66667 4.93103C7.49496 4.93103 8.16901 4.25055 8.16901 3.41379C8.16901 2.57703 7.49521 1.89655 6.66667 1.89655C5.83812 1.89655 5.16432 2.57703 5.16432 3.41379Z" fill="black"/>
</svg>
